# //////////////////////////////////////////////////////////////////////////////////
# //                                                                              //
# // rMeshOBJ exporter v1.0 - Mesh exported as triangle faces and not optimized   //
# //                                                                              //
# // more info and bugs-report:  github.com/raysan5/raylib                        //
# // feedback and support:       ray[at]raylib.com                                //
# //                                                                              //
# // Copyright (c) 2018-2023 Ramon Santamaria (@raysan5)                          //
# //                                                                              //
# //////////////////////////////////////////////////////////////////////////////////

# Vertex Count:     9
# Triangle Count:   8

g mesh
v -1.00 0.00 -1.00
v 0.00 0.00 -1.00
v 1.00 0.00 -1.00
v -1.00 0.00 0.00
v 0.00 0.00 0.00
v 1.00 0.00 0.00
v -1.00 0.00 1.00
v 0.00 0.00 1.00
v 1.00 0.00 1.00
vt 0.000 0.000
vt 0.500 0.000
vt 1.000 0.000
vt 0.000 0.500
vt 0.500 0.500
vt 1.000 0.500
vt 0.000 1.000
vt 0.500 1.000
vt 1.000 1.000
vn 0.000 1.000 0.000
vn 0.000 1.000 0.000
vn 0.000 1.000 0.000
vn 0.000 1.000 0.000
vn 0.000 1.000 0.000
vn 0.000 1.000 0.000
vn 0.000 1.000 0.000
vn 0.000 1.000 0.000
vn 0.000 1.000 0.000
f 4/4/4 2/2/2 1/1/1
f 4/4/4 5/5/5 2/2/2
f 5/5/5 3/3/3 2/2/2
f 5/5/5 6/6/6 3/3/3
f 7/7/7 5/5/5 4/4/4
f 7/7/7 8/8/8 5/5/5
f 8/8/8 6/6/6 5/5/5
f 8/8/8 9/9/9 6/6/6

